Coordinates
version=1
nRows=24
nColumns=22
inDegrees=yes

Units are S.I. units (second, meters, Newtons, ...)
If the header above contains a line with 'inDegrees', this indicates whether rotational values are in degrees (yes) or radians (no).

endheader
time	pelvis_tilt	pelvis_list	pelvis_rotation	pelvis_tx	pelvis_ty	pelvis_tz	hip_flexion_r	hip_adduction_r	hip_rotation_r	knee_angle_r	ankle_angle_r	subtalar_angle_r	hip_flexion_l	hip_adduction_l	hip_rotation_l	knee_angle_l	ankle_angle_l	subtalar_angle_l	lumbar_extension	lumbar_bending	lumbar_rotation
      0.01000000	      4.63423177	      2.33819450	    177.86426792	      0.11318839	      0.95329832	      1.11122057	      7.39587229	      1.12697212	     -0.74273948	    -12.59712837	     10.74185152	     -1.86250823	      6.79345210	     -5.12490220	     -4.60034274	    -13.31328286	     11.38074549	     -2.27330792	     -1.87262916	      1.00829911	      0.73123662
      0.02000000	      4.63822801	      2.33952875	    177.86555914	      0.11314702	      0.95329636	      1.11122873	      7.39833709	      1.12811060	     -0.74229113	    -12.59760676	     10.74207483	     -1.86304321	      6.79593915	     -5.12551109	     -4.59985490	    -13.31292757	     11.38085957	     -2.27463419	     -1.88231160	      1.00504984	      0.73057903
      0.03000000	      4.63441555	      2.34098871	    177.87091455	      0.11312800	      0.95330484	      1.11124429	      7.40412529	      1.12913294	     -0.73793888	    -12.61956588	     10.74252053	     -1.86640811	      6.80139932	     -5.12551595	     -4.59259906	    -13.33019541	     11.38055727	     -2.28276947	     -1.90681346	      1.00108876	      0.72249858
      0.04000000	      4.63971104	      2.34254470	    177.87022879	      0.11308317	      0.95330546	      1.11125461	      7.40754764	      1.13027377	     -0.73894366	    -12.61903716	     10.74327358	     -1.86691156	      6.80425796	     -5.12601614	     -4.59218255	    -13.32932923	     11.38098104	     -2.28406025	     -1.91732899	      0.99805711	      0.72071867
      0.05000000	      4.63947270	      2.34468231	    177.87603154	      0.11306043	      0.95331059	      1.11127240	      7.41705962	      1.13163850	     -0.73974159	    -12.64141235	     10.74572902	     -1.87055074	      6.81103808	     -5.12685041	     -4.58687232	    -13.34226875	     11.38196391	     -2.29289424	     -1.93736185	      0.99479322	      0.70608732
      0.06000000	      4.64533200	      2.34626669	    177.87575826	      0.11301440	      0.95331130	      1.11127967	      7.42015004	      1.13322194	     -0.74111596	    -12.64022957	     10.74645304	     -1.87095918	      6.81369956	     -5.12766941	     -4.58670082	    -13.34050983	     11.38232242	     -2.29390491	     -1.94574222	      0.99103545	      0.70440953
      0.07000000	      4.65084984	      2.34806255	    177.87700569	      0.11297084	      0.95331116	      1.11128622	      7.42336544	      1.13508974	     -0.74193563	    -12.64060260	     10.74694607	     -1.87139735	      6.81615878	     -5.12909469	     -4.58669539	    -13.33863821	     11.38264373	     -2.29493142	     -1.95340112	      0.98635877	      0.70159748
      0.08000000	      4.65631807	      2.34986857	    177.87911365	      0.11292958	      0.95330842	      1.11129274	      7.42664237	      1.13692518	     -0.74267766	    -12.64143488	     10.74731773	     -1.87186991	      6.81836165	     -5.13082729	     -4.58683918	    -13.33624536	     11.38295640	     -2.29593472	     -1.95982073	      0.98123245	      0.69787553
      0.09000000	      4.66191960	      2.35164910	    177.88185309	      0.11288886	      0.95330370	      1.11130068	      7.42953907	      1.13843093	     -0.74362504	    -12.64170196	     10.74761614	     -1.87230362	      6.82005632	     -5.13269516	     -4.58712943	    -13.33311611	     11.38329750	     -2.29680591	     -1.96441182	      0.97584437	      0.69415029
      0.10000000	      4.66827483	      2.35346215	    177.88583890	      0.11285267	      0.95329530	      1.11130893	      7.43248687	      1.14014861	     -0.74535117	    -12.64079166	     10.74795472	     -1.87277004	      6.82191614	     -5.13472447	     -4.58755419	    -13.32794118	     11.38379730	     -2.29775486	     -1.96726367	      0.96911887	      0.69006545
      0.11000000	      4.70060502	      2.34716499	    177.90671854	      0.11280163	      0.95324475	      1.11135474	      7.46077439	      1.12940259	     -0.78089090	    -12.63823884	     10.74986513	     -1.88226107	      6.84836273	     -5.12315568	     -4.55084846	    -13.31230601	     11.37270789	     -2.31182187	     -1.93052451	      0.95573277	      0.66104776
      0.12000000	      4.70561567	      2.34970124	    177.91049579	      0.11277923	      0.95323242	      1.11137016	      7.46230667	      1.13090188	     -0.78160991	    -12.63565511	     10.75037476	     -1.88235881	      6.84971446	     -5.12585632	     -4.55253336	    -13.30752189	     11.37353931	     -2.31247869	     -1.93329994	      0.94986257	      0.66118505
      0.13000000	      4.72093492	      2.35137879	    177.91607543	      0.11271134	      0.95320552	      1.11139445	      7.46174580	      1.13080790	     -0.79219785	    -12.61482986	     10.75276129	     -1.88289356	      6.84797896	     -5.12572506	     -4.55614617	    -13.28121311	     11.37727978	     -2.31584533	     -1.91139875	      0.94344474	      0.66287033
      0.14000000	      4.72567322	      2.35404153	    177.92013673	      0.11268648	      0.95318964	      1.11140048	      7.46137878	      1.13335627	     -0.79425564	    -12.61061071	     10.75275602	     -1.88282541	      6.84751416	     -5.12880363	     -4.55561963	    -13.27483040	     11.37765822	     -2.31660117	     -1.90827391	      0.93322596	      0.66444870
      0.15000000	      4.74209300	      2.35363910	    177.92456742	      0.11261750	      0.95316169	      1.11143788	      7.45665062	      1.12925184	     -0.80945731	    -12.57863484	     10.75415769	     -1.88276650	      6.84230718	     -5.12470678	     -4.55137372	    -13.24030311	     11.37963857	     -2.31977910	     -1.87896139	      0.92566886	      0.67368736
      0.16000000	      4.75142350	      2.35390631	    177.93060063	      0.11256743	      0.95314133	      1.11146410	      7.45077658	      1.12724741	     -0.81849129	    -12.55782328	     10.75338148	     -1.88234424	      6.83639000	     -5.12230731	     -4.54486856	    -13.21609055	     11.37853264	     -2.32295423	     -1.85882212	      0.91481550	      0.67873874
      0.17000000	      4.75831157	      2.35427183	    177.93526664	      0.11251587	      0.95312524	      1.11149507	      7.44113383	      1.12426141	     -0.82874450	    -12.53468168	     10.75348031	     -1.88184979	      6.82899331	     -5.12029920	     -4.54017010	    -13.19508000	     11.37776499	     -2.32662503	     -1.83794977	      0.90531937	      0.68470925
      0.18000000	      4.76336256	      2.35509589	    177.94067670	      0.11246601	      0.95311257	      1.11152824	      7.42830474	      1.12204859	     -0.83897753	    -12.50931846	     10.75350812	     -1.88117692	      6.82139648	     -5.11854902	     -4.53746635	    -13.17614437	     11.37796312	     -2.33064196	     -1.81702891	      0.89587851	      0.69095854
      0.19000000	      4.76656089	      2.35643538	    177.94584868	      0.11241526	      0.95310351	      1.11156232	      7.41251514	      1.12027254	     -0.84886841	    -12.48226950	     10.75294205	     -1.88028262	      6.81392917	     -5.11755800	     -4.53570484	    -13.16133803	     11.37889132	     -2.33481186	     -1.79585489	      0.88687952	      0.69691238
      0.20000000	      4.76825930	      2.35849192	    177.95096689	      0.11236124	      0.95309601	      1.11159868	      7.39412200	      1.11905556	     -0.85831665	    -12.45431225	     10.75164311	     -1.87911596	      6.80738271	     -5.11735665	     -4.53425425	    -13.15132468	     11.38051658	     -2.33904358	     -1.77480964	      0.87884227	      0.70236065
      0.21000000	      4.76823704	      2.36128112	    177.95683083	      0.11230659	      0.95309271	      1.11164052	      7.37295406	      1.11782087	     -0.86781731	    -12.42340437	     10.74918773	     -1.87742161	      6.80109923	     -5.11798911	     -4.53198701	    -13.14554000	     11.38295685	     -2.34383194	     -1.75389287	      0.87281012	      0.70700742
      0.22000000	      4.76660580	      2.36517186	    177.96274726	      0.11225053	      0.95309045	      1.11167855	      7.35096219	      1.11860390	     -0.87671995	    -12.39541502	     10.74656510	     -1.87538252	      6.79623751	     -5.11957711	     -4.52887515	    -13.14469127	     11.38610892	     -2.34840804	     -1.73404388	      0.86664817	      0.71124909
      0.23000000	      4.76399416	      2.36953651	    177.96893651	      0.11219251	      0.95308928	      1.11171998	      7.32904040	      1.11952957	     -0.88497810	    -12.36934315	     10.74399555	     -1.87290694	      6.79182324	     -5.12147101	     -4.52482618	    -13.14708553	     11.39017166	     -2.35286718	     -1.71500254	      0.86184117	      0.71514939
      0.24000000	      4.75971322	      2.37299998	    177.97095037	      0.11215214	      0.95308822	      1.11175368	      7.32095179	      1.12051263	     -0.88564036	    -12.37009323	     10.74333998	     -1.87247189	      6.78731057	     -5.12291373	     -4.52371555	    -13.15181781	     11.39057399	     -2.35346254	     -1.70103584	      0.85657925	      0.71626762
